<mxfile host="app.diagrams.net" modified="2020-10-24T10:04:54.376Z" agent="5.0 (Windows NT 10.0; Win64; x64) AppleWebKit/537.36 (KHTML, like Gecko) Chrome/86.0.4240.111 Safari/537.36" etag="HYcNruorvDTGlCUuNTdM" version="13.8.1" type="github">
  <diagram id="jHiDJUVklE-A5J_5ehrH" name="Page-1">
    <mxGraphModel dx="1673" dy="946" grid="1" gridSize="10" guides="1" tooltips="1" connect="1" arrows="1" fold="1" page="1" pageScale="1" pageWidth="827" pageHeight="1169" math="0" shadow="0">
      <root>
        <mxCell id="0" />
        <mxCell id="1" parent="0" />
        <mxCell id="p3qVUgrJZQAdhpscU_Ql-4" value="" style="edgeStyle=orthogonalEdgeStyle;rounded=0;orthogonalLoop=1;jettySize=auto;html=1;" edge="1" parent="1" source="p3qVUgrJZQAdhpscU_Ql-1" target="p3qVUgrJZQAdhpscU_Ql-3">
          <mxGeometry relative="1" as="geometry" />
        </mxCell>
        <mxCell id="p3qVUgrJZQAdhpscU_Ql-1" value="başla" style="ellipse;whiteSpace=wrap;html=1;" vertex="1" parent="1">
          <mxGeometry x="380" y="90" width="120" height="80" as="geometry" />
        </mxCell>
        <mxCell id="p3qVUgrJZQAdhpscU_Ql-6" value="" style="edgeStyle=orthogonalEdgeStyle;rounded=0;orthogonalLoop=1;jettySize=auto;html=1;" edge="1" parent="1" source="p3qVUgrJZQAdhpscU_Ql-3" target="p3qVUgrJZQAdhpscU_Ql-5">
          <mxGeometry relative="1" as="geometry" />
        </mxCell>
        <mxCell id="p3qVUgrJZQAdhpscU_Ql-3" value="sayi1, sayi2" style="shape=parallelogram;perimeter=parallelogramPerimeter;whiteSpace=wrap;html=1;fixedSize=1;" vertex="1" parent="1">
          <mxGeometry x="380" y="210" width="120" height="60" as="geometry" />
        </mxCell>
        <mxCell id="p3qVUgrJZQAdhpscU_Ql-8" value="" style="edgeStyle=orthogonalEdgeStyle;rounded=0;orthogonalLoop=1;jettySize=auto;html=1;" edge="1" parent="1" source="p3qVUgrJZQAdhpscU_Ql-5" target="p3qVUgrJZQAdhpscU_Ql-7">
          <mxGeometry relative="1" as="geometry" />
        </mxCell>
        <mxCell id="p3qVUgrJZQAdhpscU_Ql-11" value="H" style="edgeLabel;html=1;align=center;verticalAlign=middle;resizable=0;points=[];" vertex="1" connectable="0" parent="p3qVUgrJZQAdhpscU_Ql-8">
          <mxGeometry x="0.254" relative="1" as="geometry">
            <mxPoint as="offset" />
          </mxGeometry>
        </mxCell>
        <mxCell id="p3qVUgrJZQAdhpscU_Ql-10" value="" style="edgeStyle=orthogonalEdgeStyle;rounded=0;orthogonalLoop=1;jettySize=auto;html=1;" edge="1" parent="1" source="p3qVUgrJZQAdhpscU_Ql-5" target="p3qVUgrJZQAdhpscU_Ql-9">
          <mxGeometry relative="1" as="geometry" />
        </mxCell>
        <mxCell id="p3qVUgrJZQAdhpscU_Ql-12" value="E" style="edgeLabel;html=1;align=center;verticalAlign=middle;resizable=0;points=[];" vertex="1" connectable="0" parent="p3qVUgrJZQAdhpscU_Ql-10">
          <mxGeometry x="-0.208" y="1" relative="1" as="geometry">
            <mxPoint as="offset" />
          </mxGeometry>
        </mxCell>
        <mxCell id="p3qVUgrJZQAdhpscU_Ql-5" value="sayi1 &amp;gt; sayi2" style="rhombus;whiteSpace=wrap;html=1;" vertex="1" parent="1">
          <mxGeometry x="395" y="310" width="90" height="90" as="geometry" />
        </mxCell>
        <mxCell id="p3qVUgrJZQAdhpscU_Ql-14" style="edgeStyle=orthogonalEdgeStyle;rounded=0;orthogonalLoop=1;jettySize=auto;html=1;entryX=0.997;entryY=0.558;entryDx=0;entryDy=0;entryPerimeter=0;" edge="1" parent="1" source="p3qVUgrJZQAdhpscU_Ql-7" target="p3qVUgrJZQAdhpscU_Ql-13">
          <mxGeometry relative="1" as="geometry">
            <Array as="points">
              <mxPoint x="610" y="515" />
            </Array>
          </mxGeometry>
        </mxCell>
        <mxCell id="p3qVUgrJZQAdhpscU_Ql-7" value="sayi2 büyüktür" style="shape=document;whiteSpace=wrap;html=1;boundedLbl=1;" vertex="1" parent="1">
          <mxGeometry x="560" y="335" width="100" height="40" as="geometry" />
        </mxCell>
        <mxCell id="p3qVUgrJZQAdhpscU_Ql-15" style="edgeStyle=orthogonalEdgeStyle;rounded=0;orthogonalLoop=1;jettySize=auto;html=1;entryX=0;entryY=0.5;entryDx=0;entryDy=0;" edge="1" parent="1" source="p3qVUgrJZQAdhpscU_Ql-9" target="p3qVUgrJZQAdhpscU_Ql-13">
          <mxGeometry relative="1" as="geometry">
            <Array as="points">
              <mxPoint x="270" y="510" />
            </Array>
          </mxGeometry>
        </mxCell>
        <mxCell id="p3qVUgrJZQAdhpscU_Ql-9" value="sayi1 büyüktür" style="shape=document;whiteSpace=wrap;html=1;boundedLbl=1;" vertex="1" parent="1">
          <mxGeometry x="220" y="335" width="100" height="40" as="geometry" />
        </mxCell>
        <mxCell id="p3qVUgrJZQAdhpscU_Ql-13" value="bitir" style="ellipse;whiteSpace=wrap;html=1;" vertex="1" parent="1">
          <mxGeometry x="380" y="470" width="120" height="80" as="geometry" />
        </mxCell>
      </root>
    </mxGraphModel>
  </diagram>
</mxfile>
